<svg width="197" height="400" viewBox="0 0 197 400" fill="none" xmlns="http://www.w3.org/2000/svg">
<path d="M135.237 137.391C134.326 142.424 133.419 147.457 132.515 152.49C131.802 155.494 132.356 158.687 131.277 161.4C130.668 162.92 128.569 164.707 127.064 165.36L124.094 166.35V174.766C125.851 174.598 126.327 173.662 127.559 173.281C129.827 172.583 131.831 174.37 133.5 174.766C135.276 179.073 136.603 183.552 137.46 188.132C137.811 189.944 136.069 190.181 136.222 191.597C136.356 192.854 137.212 195.29 137.46 197.042C137.519 197.537 137.039 198.874 136.965 199.27C136.732 200.522 137.46 200.448 137.707 201.003C137.792 202.488 137.871 203.973 137.955 205.458C141.381 217.631 144.772 228.789 148.351 240.605L149.093 246.05C150.222 250.441 151.009 254.921 152.063 259.416C153.053 263.679 150.925 269.366 152.063 273.525C152.682 275.772 154.479 279.5 154.043 282.435C153.751 284.415 153.85 286.99 153.301 289.118C153.128 289.801 152.4 290.92 152.558 291.841C153.019 294.509 154.281 297.841 155.034 300.504C155.786 303.167 155.905 306.291 156.519 308.919V321.543C156.519 328.602 156.885 335.938 155.529 341.839C155.364 344.232 155.199 346.624 155.034 349.017C154.286 352.324 153.42 361.19 155.281 363.868C163.053 370.036 168.979 378.036 177.062 383.917C177.473 384.214 177.889 384.115 178.3 384.412L181.27 387.629C183.349 388.723 186.438 389.04 186.963 391.59C187.864 392.877 187.126 394.872 186.963 396.54C186.201 397.035 185.612 397.896 184.735 398.273C182.785 399.119 181.919 398.188 180.28 398.52C180.097 398.56 179.478 399.198 179.29 399.263C177.666 399.827 171.617 400.307 169.389 399.758C167.657 399.332 165.157 399.065 163.449 398.273C163.009 398.07 162.781 397.174 162.459 397.035C162.043 396.857 161.231 397.495 160.479 397.282C158.986 396.831 157.567 396.164 156.266 395.302C153.449 393.124 154.286 389.119 148.841 389.114C146.831 387.862 141.876 389.238 140.178 389.61C138.247 390.035 137 389.159 135.722 388.867C132.718 382.743 134.208 373.521 136.217 367.333C136.403 366.571 136.651 365.826 136.96 365.105L137.95 364.363V356.433C137.069 352.571 137.178 348.081 135.722 344.552C134.674 342.066 133.433 339.666 132.01 337.374C131.47 336.517 130.411 335.651 130.03 334.651C128.723 331.265 128.158 326.731 127.307 323.265C125.54 316.068 126.48 303.87 128.049 297.276L129.039 288.366C129.386 287.113 130.064 286.138 130.277 284.405C128.337 283.381 127.886 283.128 124.579 283.168C123.436 281.143 122.064 279.044 121.114 276.733C120.292 274.752 120.223 272.772 119.381 270.792C116.985 265.094 114.431 259.59 111.956 253.714C110.268 249.753 108.179 245.08 107.006 240.595C106.511 238.66 107.684 236.838 107.996 235.397C109.347 234.838 111.129 234.343 111.213 232.427C109.956 230.353 110.223 224.165 109.233 221.537C107.575 222.002 106.491 223.304 105.026 223.764C103.045 224.393 99.8326 223.358 98.3426 223.022H91.6646C90.6386 222.701 89.6444 222.287 88.6944 221.784V227.229C91.2983 228.759 92.3527 230.917 94.3873 232.922C94.6249 242.046 92.4418 249.932 90.1795 256.931C89.1053 260.258 89.0311 264.57 88.1994 267.822C87.1301 272.015 87.5757 279.836 82.7541 279.95C82.2095 279.549 81.4719 279.455 80.5264 279.455L79.2888 280.94V283.168L80.2789 283.91V293.564C80.2789 298.207 81.2987 305.192 80.2789 309.9V315.097C79.1898 319.736 78.4869 324.359 76.8137 328.463C75.1405 332.567 73.0564 336.829 71.8634 341.087C71.1456 343.646 69.5862 351.898 70.3783 355.195C70.6258 356.244 71.7 357.749 71.3683 359.155C71.101 360.279 70.1753 361.754 69.8833 362.868C69.5219 364.244 70.0516 366.125 70.3783 367.323C71.1703 370.259 73.7791 382.852 70.3783 384.402H67.4081C66.5121 383.828 63.9429 383.907 62.7003 383.907C60.1509 388.263 59.4925 391.941 54.7799 394.302C51.3146 396.035 45.4089 395.624 42.1566 394.302C41.0328 393.847 39.8943 395.129 38.9389 395.045C36.8894 394.872 30.3847 392.847 29.7758 391.58V388.61C30.2709 387.936 30.2709 386.872 30.7659 386.134C31.4193 385.144 32.7906 384.575 33.4935 383.659C34.1073 382.852 34.3648 382.021 34.9786 381.184L38.6913 377.719C41.117 374.511 44.1763 372.031 46.6118 368.808C48.3444 366.516 52.0572 364.462 53.0472 361.63C52.9631 360.314 52.8839 358.992 52.7997 357.67C53.3773 355.69 53.9548 353.71 54.5323 351.73C54.6858 350.547 54.2997 347.215 54.0373 346.037V342.819C53.2849 339.354 53.3096 334.998 52.5522 331.681C51.7701 328.255 52.8294 324.914 52.0572 321.285C51.4681 318.503 51.775 315.132 51.8097 312.127V307.177C53.7898 298.648 55.8442 290.311 58.7401 282.92C59.0668 282.099 59.4826 275.247 59.4826 275.247C58.3391 273.723 57.0075 274.188 57.0075 271.287C57.7797 270.015 56.6263 268.134 57.0075 266.337C57.6362 263.401 57.0075 260.015 57.0075 256.684V250.991C56.0174 246.397 56.0174 237.259 57.0075 232.675V218.071L57.9976 198.765C59.5272 198.042 60.7945 198.305 60.7202 195.795C59.7302 194.27 60.9776 190.35 61.4628 189.112C61.7251 188.444 62.6261 187.627 62.4528 186.637C62.3835 186.221 61.7449 185.855 61.9578 184.904C62.5221 182.429 63.7548 179.459 64.6854 177.231C65.4577 175.365 65.6755 172.855 67.4081 172.033C70.809 169.276 73.1307 172.231 76.0711 172.776V172.281C76.9523 170.934 76.9473 165.474 76.5662 163.618C75.1801 163.148 74.4276 162.133 73.3485 161.39C72.5812 160.895 71.8634 160.702 71.1208 160.153C67.6556 157.519 67.9526 151.658 66.1705 147.282C64.428 143.025 62.4974 138.589 60.7252 134.411C59.844 132.332 59.3886 128.382 57.755 126.986V126.738C57.6758 126.822 57.5916 126.906 57.5075 126.986C54.3096 130.154 52.2849 134.728 49.8345 138.619C47.4831 142.346 44.6713 145.945 42.1615 149.509C40.9932 151.168 38.429 155.999 36.4686 156.44C36.038 156.113 36.0677 156.014 35.7261 156.192C34.6865 156.861 32.3005 159.247 32.2609 160.895C31.2164 162.509 32.0777 163.747 31.5183 165.846C30.7909 168.464 29.8812 171.028 28.7957 173.519C26.9987 177.756 24.6325 182.087 22.8553 186.389C21.6524 189.305 21.2365 192.072 20.1326 195.052C19.0881 197.874 17.4743 200.904 17.4099 204.458C21.1375 206.215 23.5434 209.685 24.5879 214.111C24.5087 215.844 24.4262 217.576 24.3404 219.309C24.5631 220.24 25.2215 222.155 24.8354 223.764C24.479 225.274 23.6671 227.635 23.3503 228.962C23.1919 229.635 23.7166 231.591 23.8454 232.18C24.5681 235.417 23.9345 240.066 23.3503 242.328C22.8171 242.597 22.3184 242.929 21.8652 243.318C18.7465 243.348 18.801 241.833 16.6674 241.338C15.91 242.561 15.8853 244.353 15.9249 246.536C15.8605 246.778 15.7318 246.63 15.9249 246.783C18.8307 249.753 24.1127 251.639 22.8553 257.921C22.0286 258.476 22.0632 258.837 20.6277 258.911C19.5435 257.921 17.2416 257.1 15.6773 256.684H13.9447L8.99442 253.466C8.45483 252.887 8.6578 251.981 8.00436 251.486C7.06875 250.813 6.12324 250.743 5.5292 249.753V249.011L4.53914 248.516C3.10355 246.536 3.78669 243.6 3.05404 240.843C2.22239 237.729 0.875907 234.902 0.0838576 231.437C-0.158708 230.363 0.187814 228.66 0.331373 227.972C0.935311 225.18 0.0492055 221.537 0.578889 219.061C0.407278 215.355 0.237317 211.643 0.0690067 207.923C0.119344 207.423 0.202023 206.927 0.316522 206.438L1.30658 205.943V203.22C1.6036 201.993 2.23724 200.918 2.54911 199.755L1.80657 199.26C1.88577 198.354 1.96993 197.448 2.05408 196.537C2.82633 193.825 3.16295 190.557 4.03421 187.627C6.63807 178.825 7.60338 168.628 11.4597 161.143C13.0685 158.024 12.4893 154.925 16.905 155.202L20.6177 151.49C21.2167 150.43 21.0237 149.237 21.6078 148.272C23.1672 145.703 24.8998 143.233 26.5581 140.599C27.6967 138.797 29.7214 136.936 30.5184 134.906C30.8484 133.008 31.1784 131.111 31.5084 129.213C32.6074 126.585 35.8251 124.832 36.2162 121.788C34.6222 121.293 34.7311 119.228 35.2261 117.332C35.9934 114.204 36.2756 110.402 37.2062 107.432C38.1666 104.373 38.2458 101.61 39.4339 98.7688C41.909 92.8581 46.5821 88.3732 51.8097 85.1554L58.9876 81.9377C59.8292 81.7843 60.542 82.8536 60.9677 82.4328C61.4628 81.8585 61.3786 80.4527 61.9578 79.9576C63.0469 79.0022 64.6607 78.7497 65.9181 77.9775C69.606 75.7202 75.4375 73.1014 78.2938 70.057H79.7789C79.7245 68.0224 80.5165 67.166 81.0165 65.1067V62.1365C81.1007 61.8642 81.7442 61.9038 81.5115 61.1464L80.769 60.6514C80.4126 59.8445 80.4423 58.3693 80.274 57.6812V55.4536C80.0264 54.9932 79.0661 54.81 78.7889 54.216C78.1107 52.7705 78.5562 51.5824 78.0463 49.7607C77.6008 48.1717 76.9572 46.2955 76.3137 44.5629C74.5811 39.8849 72.4426 35.2514 70.8684 30.4545L69.8783 24.5141C69.0813 21.0489 71.5515 15.6036 72.601 13.6234C75.8137 7.46526 80.1403 3.52481 86.9569 1.00015C88.7786 0.326911 90.234 0.732836 92.4022 0.257607C94.3675 -0.0858688 96.3774 -0.0858688 98.3426 0.257607C100.224 0.703135 101.694 0.222954 103.293 0.752638C109.54 2.83177 113.842 7.12864 115.926 13.3759C116.586 16.7586 117.246 20.1414 117.906 23.5241C118.758 26.3655 119.886 29.5536 120.629 32.4346C121.51 35.8355 120.134 47.4539 119.391 50.0082C118.384 53.2295 117.143 56.373 115.679 59.4138C114.941 61.0227 113.783 62.0177 113.203 64.1166C112.897 65.2403 112.956 70.3045 112.956 70.3045C115.396 73.4628 119.644 76.5568 122.857 78.9676C123.559 79.4972 124.911 79.9576 125.332 80.7002C125.98 81.8536 125.53 83.2694 126.322 84.1654C128.139 81.6457 136.178 86.4475 137.96 87.6306C146.019 92.9868 147.861 99.942 150.583 110.65C151.019 112.362 152.648 119.268 152.068 120.55C151.572 121.066 150.984 121.485 150.336 121.788C150.494 122.223 150.385 122.03 150.583 122.283C151.44 125.748 154.306 128.872 156.029 131.688C157.266 133.708 156.326 134.98 157.266 137.134C159.335 141.861 162.504 145.549 162.711 151.737C164.068 152.633 164.86 154.707 166.672 154.955C167.325 154.499 167.706 154.623 168.404 154.707C168.781 155.836 169.776 156.321 170.384 157.182C171.766 159.128 173.117 161.143 174.345 163.123C177.81 168.816 179.543 175.939 182.265 182.182C183.577 185.181 186.612 187.924 186.968 191.587C186.399 192.132 186.27 192.429 186.225 193.567C186.909 194.112 186.661 194.889 187.216 195.547C187.914 196.369 189.24 195.82 189.938 197.28C190.795 198.409 190.507 200.112 190.928 201.735C191.918 205.527 192.126 209.522 193.156 213.616C193.943 216.764 195.136 219.749 195.879 223.022C196.374 225.304 195.245 227.62 194.889 229.457C194.497 231.437 195.73 236.744 194.889 238.12C194.725 238.387 193.809 238.516 193.651 238.863C193.567 239.689 193.483 240.516 193.403 241.338L192.166 242.575C192.245 242.991 192.329 243.402 192.413 243.813L187.958 248.763L186.225 249.011C183.874 250.189 182.359 253.52 179.048 253.714C178.651 253.09 178.251 251.818 177.81 251.238C177.181 250.417 175.963 250.461 175.582 249.258C174.869 247.011 176.77 246.105 177.315 245.051C177.478 244.308 177.647 243.565 177.81 242.823L179.048 241.833C179.632 240.566 179.27 238.67 179.79 237.378L180.78 236.387C180.899 236.066 179.79 230.205 179.79 228.714C176.434 227.13 176.82 224.096 176.325 221.041C174.27 220.502 174.092 218.18 173.107 216.586C171.622 214.205 168.35 210.473 169.642 205.696C170.305 203.25 171.934 201.013 172.117 198.27C169.578 196.533 168.389 192.691 166.672 190.102C162.791 184.271 158.548 178.845 154.791 172.776C153.044 169.954 150.831 166.875 150.583 162.628C151.519 161.851 151.86 161.504 151.821 159.658C151.573 159.257 151.583 158.078 151.326 157.678C150.509 155.915 148.45 155.564 147.613 154.46C145.519 151.693 144.45 148.143 142.168 145.549C141.747 145.054 140.836 145.084 140.435 144.559C138.74 142.304 137.249 139.902 135.98 137.381L135.237 137.391Z" fill="white"/>
</svg>
