<svg width="72" height="72" viewBox="0 0 72 72" fill="none" xmlns="http://www.w3.org/2000/svg">
<path fill-rule="evenodd" clip-rule="evenodd" d="M36 48C42.6274 48 48 42.6274 48 36C48 29.3726 42.6274 24 36 24C29.3726 24 24 29.3726 24 36C24 42.6274 29.3726 48 36 48ZM36 46C41.5228 46 46 41.5228 46 36C46 30.4772 41.5228 26 36 26C30.4772 26 26 30.4772 26 36C26 41.5228 30.4772 46 36 46Z" fill="white"/>
<path fill-rule="evenodd" clip-rule="evenodd" d="M16 24H24V16H22V22H16V24Z" fill="white"/>
<path fill-rule="evenodd" clip-rule="evenodd" d="M48 16V24H56V22L50 22V16L48 16Z" fill="white"/>
<path fill-rule="evenodd" clip-rule="evenodd" d="M56 48H48V56H50V50H56V48Z" fill="white"/>
<path fill-rule="evenodd" clip-rule="evenodd" d="M24 56L24 48H16L16 50H22L22 56H24Z" fill="white"/>
</svg>
