<svg width="72" height="72" viewBox="0 0 72 72" fill="none" xmlns="http://www.w3.org/2000/svg">
<path fill-rule="evenodd" clip-rule="evenodd" d="M36 24.6863L24.6863 36L36 47.3137L47.3138 36L36 24.6863ZM21.8579 36L36 50.1421L50.1422 36L36 21.8579L21.8579 36Z" fill="white"/>
<path fill-rule="evenodd" clip-rule="evenodd" d="M16 24H24V16H22V22H16V24Z" fill="white"/>
<path fill-rule="evenodd" clip-rule="evenodd" d="M48 16V24H56V22L50 22V16L48 16Z" fill="white"/>
<path fill-rule="evenodd" clip-rule="evenodd" d="M56 48H48L48 56H50V50H56V48Z" fill="white"/>
<path fill-rule="evenodd" clip-rule="evenodd" d="M24 56L24 48L16 48L16 50L22 50L22 56H24Z" fill="white"/>
</svg>
