<svg width="72" height="72" viewBox="0 0 72 72" fill="none" xmlns="http://www.w3.org/2000/svg">
<path fill-rule="evenodd" clip-rule="evenodd" d="M36.0001 24.6863L24.6864 36L36.0001 47.3137L47.3139 36L36.0001 24.6863ZM21.858 36L36.0001 50.1422L50.1423 36L36.0001 21.8579L21.858 36Z" fill="white"/>
<path d="M25.3628 17.2232L17.2231 25.3629L18.6374 26.7771L26.777 18.6375L25.3628 17.2232Z" fill="white"/>
<path d="M17.2232 46.6372L25.3629 54.7769L26.7771 53.3627L18.6375 45.223L17.2232 46.6372Z" fill="white"/>
<path d="M46.6374 54.7769L54.7771 46.6372L53.3629 45.223L45.2232 53.3627L46.6374 54.7769Z" fill="white"/>
<path d="M54.777 25.3628L46.6373 17.2231L45.2231 18.6374L53.3627 26.777L54.777 25.3628Z" fill="white"/>
</svg>
