<svg width="72" height="72" viewBox="0 0 72 72" fill="none" xmlns="http://www.w3.org/2000/svg">
<path fill-rule="evenodd" clip-rule="evenodd" d="M36 48C42.6275 48 48 42.6275 48 36C48 29.3726 42.6275 24 36 24C29.3726 24 24 29.3726 24 36C24 42.6275 29.3726 48 36 48ZM36 46C41.5229 46 46 41.5229 46 36C46 30.4772 41.5229 26 36 26C30.4772 26 26 30.4772 26 36C26 41.5229 30.4772 46 36 46Z" fill="white"/>
<path d="M25.3628 17.2232L17.2231 25.3629L18.6374 26.7771L26.777 18.6374L25.3628 17.2232Z" fill="white"/>
<path d="M17.2232 46.6372L25.3629 54.7769L26.7771 53.3627L18.6374 45.223L17.2232 46.6372Z" fill="white"/>
<path d="M46.6374 54.7769L54.7771 46.6372L53.3628 45.223L45.2232 53.3627L46.6374 54.7769Z" fill="white"/>
<path d="M54.7769 25.3628L46.6372 17.2231L45.223 18.6374L53.3627 26.777L54.7769 25.3628Z" fill="white"/>
</svg>
