<svg width="72" height="72" viewBox="0 0 72 72" fill="none" xmlns="http://www.w3.org/2000/svg">
<path d="M26.8077 25.3936L46.6066 45.1926L45.1924 46.6068L25.3934 26.8078L26.8077 25.3936Z" fill="white"/>
<path d="M45.1924 25.3936L25.3934 45.1926L26.8076 46.6068L46.6066 26.8078L45.1924 25.3936Z" fill="white"/>
<path d="M25.3628 17.2232L17.2231 25.3629L18.6374 26.7771L26.777 18.6374L25.3628 17.2232Z" fill="white"/>
<path d="M17.2232 46.6372L25.3629 54.7769L26.7771 53.3627L18.6374 45.223L17.2232 46.6372Z" fill="white"/>
<path d="M46.6374 54.7769L54.7771 46.6372L53.3628 45.223L45.2232 53.3627L46.6374 54.7769Z" fill="white"/>
<path d="M54.7769 25.3628L46.6372 17.2231L45.223 18.6374L53.3627 26.777L54.7769 25.3628Z" fill="white"/>
</svg>
