<svg width="72" height="72" viewBox="0 0 72 72" fill="none" xmlns="http://www.w3.org/2000/svg">
<path d="M26.8076 25.3936L46.6066 45.1925L45.1924 46.6068L25.3934 26.8078L26.8076 25.3936Z" fill="white"/>
<path d="M45.1924 25.3936L25.3934 45.1925L26.8076 46.6068L46.6066 26.8078L45.1924 25.3936Z" fill="white"/>
<path fill-rule="evenodd" clip-rule="evenodd" d="M51 23C52.1046 23 53 22.1046 53 21C53 19.8954 52.1046 19 51 19C49.8954 19 49 19.8954 49 21C49 22.1046 49.8954 23 51 23ZM51 25C53.2091 25 55 23.2091 55 21C55 18.7909 53.2091 17 51 17C48.7909 17 47 18.7909 47 21C47 23.2091 48.7909 25 51 25Z" fill="white"/>
<path fill-rule="evenodd" clip-rule="evenodd" d="M21 23C19.8954 23 19 22.1046 19 21C19 19.8954 19.8954 19 21 19C22.1046 19 23 19.8954 23 21C23 22.1046 22.1046 23 21 23ZM21 25C18.7909 25 17 23.2091 17 21C17 18.7909 18.7909 17 21 17C23.2091 17 25 18.7909 25 21C25 23.2091 23.2091 25 21 25Z" fill="white"/>
<path fill-rule="evenodd" clip-rule="evenodd" d="M21 53C22.1046 53 23 52.1046 23 51C23 49.8954 22.1046 49 21 49C19.8954 49 19 49.8954 19 51C19 52.1046 19.8954 53 21 53ZM21 55C23.2091 55 25 53.2091 25 51C25 48.7909 23.2091 47 21 47C18.7909 47 17 48.7909 17 51C17 53.2091 18.7909 55 21 55Z" fill="white"/>
<path fill-rule="evenodd" clip-rule="evenodd" d="M51 53C49.8954 53 49 52.1046 49 51C49 49.8954 49.8954 49 51 49C52.1046 49 53 49.8954 53 51C53 52.1046 52.1046 53 51 53ZM51 55C48.7909 55 47 53.2091 47 51C47 48.7909 48.7909 47 51 47C53.2091 47 55 48.7909 55 51C55 53.2091 53.2091 55 51 55Z" fill="white"/>
</svg>
