<svg width="72" height="72" viewBox="0 0 72 72" fill="none" xmlns="http://www.w3.org/2000/svg">
<path fill-rule="evenodd" clip-rule="evenodd" d="M42.959 36.9992C42.4512 43.1591 37.2909 48 31 48C24.3726 48 19 42.6274 19 36C19 29.3726 24.3726 24 31 24C37.2909 24 42.4512 28.8409 42.959 35.0008C42.9726 35.0003 42.9863 35 43 35H52C52.5523 35 53 35.4477 53 36C53 36.5523 52.5523 37 52 37H43C42.9863 37 42.9726 36.9997 42.959 36.9992ZM41 36C41 41.5228 36.5228 46 31 46C25.4772 46 21 41.5228 21 36C21 30.4772 25.4772 26 31 26C36.5228 26 41 30.4772 41 36Z" fill="white"/>
</svg>
