<svg width="72" height="72" viewBox="0 0 72 72" fill="none" xmlns="http://www.w3.org/2000/svg">
<path fill-rule="evenodd" clip-rule="evenodd" d="M35 20C35 19.4477 35.4477 19 36 19C36.5523 19 37 19.4477 37 20V24.0411C43.1595 24.5492 48 29.7093 48 36C48 42.2909 43.1591 47.4512 36.9992 47.959C36.9997 47.9726 37 47.9863 37 48V52C37 52.5523 36.5523 53 36 53C35.4477 53 35 52.5523 35 52V48C35 47.9863 35.0003 47.9726 35.0008 47.959C28.8409 47.4512 24 42.2909 24 36C24 29.7093 28.8405 24.5492 35 24.0411V20ZM26 36C26 30.8146 29.9467 26.5511 35 26.0494V45.9506C29.9467 45.4489 26 41.1853 26 36ZM46 36C46 30.8146 42.0533 26.5511 37 26.0494V45.9506C42.0533 45.4489 46 41.1853 46 36Z" fill="white"/>
</svg>
