<svg width="72" height="72" viewBox="0 0 72 72" fill="none" xmlns="http://www.w3.org/2000/svg">
<path d="M39 32C39.5523 32 40 32.4477 40 33L40 39C40 39.5523 39.5523 40 39 40C38.4477 40 38 39.5523 38 39L38 33C38 32.4477 38.4477 32 39 32Z" fill="white"/>
<path d="M34 33C34 32.4477 33.5523 32 33 32C32.4477 32 32 32.4477 32 33L32 39C32 39.5523 32.4477 40 33 40C33.5523 40 34 39.5523 34 39L34 33Z" fill="white"/>
<path fill-rule="evenodd" clip-rule="evenodd" d="M24 36C24 42.6274 29.3726 48 36 48C42.6274 48 48 42.6274 48 36C48 29.3726 42.6274 24 36 24C29.3726 24 24 29.3726 24 36ZM26 36C26 41.5228 30.4772 46 36 46C41.5228 46 46 41.5228 46 36C46 30.4772 41.5228 26 36 26C30.4772 26 26 30.4772 26 36Z" fill="white"/>
</svg>
