<svg width="72" height="72" viewBox="0 0 72 72" fill="none" xmlns="http://www.w3.org/2000/svg">
<path fill-rule="evenodd" clip-rule="evenodd" d="M24 36C24 42.6274 29.3726 48 36 48C42.6274 48 48 42.6274 48 36C48 29.3726 42.6274 24 36 24C29.3726 24 24 29.3726 24 36ZM26 36C26 41.4464 30.354 45.8758 35.7712 45.9974C35.8386 45.9611 35.9232 45.9131 36.0205 45.8529C36.2985 45.6808 36.6714 45.4144 37.0429 45.0429C37.7775 44.3082 38.5 43.1748 38.5 41.5C38.5 38.4115 35.9916 37.1011 35.6233 36.9272C35.5803 36.9069 35.5111 36.8737 35.4325 36.8259C35.1776 36.6708 34.22 36.0556 33.3159 35.0199C32.4116 33.984 31.5 32.455 31.5 30.5C31.5 28.8438 32.1536 27.4938 32.905 26.4882C28.897 27.7914 26 31.5574 26 36ZM40.5 41.5C40.5 43.1635 39.9741 44.4642 39.303 45.4416C43.2028 44.0775 46 40.3654 46 36C46 30.5722 41.6756 26.1544 36.2842 26.004C36.2174 26.0491 36.1372 26.1051 36.047 26.1718C35.7556 26.3868 35.3672 26.7061 34.9811 27.1198C34.1995 27.9572 33.5 29.0996 33.5 30.5C33.5 31.8036 34.1053 32.883 34.8226 33.7046C35.5288 34.5136 36.2845 35.0023 36.464 35.1124L36.4772 35.1187C36.9656 35.3493 40.5 37.1556 40.5 41.5Z" fill="white"/>
</svg>
