<svg width="10" height="11" viewBox="0 0 10 11" fill="none" xmlns="http://www.w3.org/2000/svg">
<path fill-rule="evenodd" clip-rule="evenodd" d="M6 1.62602V1.5V0.600018V0.5H7H10V1.5H8.00049C9.21466 2.41223 10 3.8644 10 5.5C10 8.26142 7.76142 10.5 5 10.5C2.23858 10.5 0 8.26142 0 5.5C0 3.29464 1.42779 1.42276 3.40942 0.758309C3.70913 0.657815 4 0.8956 4 1.21171V1.23841C4 1.46655 3.84418 1.66268 3.62984 1.74083C2.09552 2.3002 1 3.77217 1 5.5C1 7.70914 2.79086 9.5 5 9.5C7.20914 9.5 9 7.70914 9 5.5C9 4.01943 8.1956 2.72675 7 2.03513V4.5H6V1.62602Z" fill="white"/>
</svg>
