<svg width="72" height="72" viewBox="0 0 72 72" fill="none" xmlns="http://www.w3.org/2000/svg">
<path fill-rule="evenodd" clip-rule="evenodd" d="M24 40.9996C24 34.7086 28.8409 29.5483 35.0009 29.0406C35.0003 29.027 35 29.0133 35 28.9996V26.9996H33C32.4477 26.9996 32 26.5519 32 25.9996C32 25.4473 32.4477 24.9996 33 24.9996H35L35 22.9996H32.7033C31.7749 22.9996 31.3476 21.8445 32.0525 21.2403L35.3107 18.4476C35.35 18.4107 35.3922 18.3771 35.4367 18.3471C35.6126 18.2256 35.8084 18.1708 36.0002 18.1719C36.1919 18.1709 36.3876 18.2256 36.5634 18.3471C36.6079 18.3771 36.6501 18.4108 36.6894 18.4477L39.9476 21.2403C40.6525 21.8445 40.2252 22.9996 39.2968 22.9996L37 22.9996L37 24.9996L39 24.9996C39.5523 24.9996 40 25.4473 40 25.9996C40 26.5519 39.5523 26.9996 39 26.9996H37V28.9996L36.9999 29.0148C36.9998 29.0234 36.9995 29.032 36.9992 29.0406C43.1591 29.5483 48 34.7086 48 40.9996C48 47.627 42.6274 52.9996 36 52.9996C29.3726 52.9996 24 47.627 24 40.9996ZM36 30.9996C30.4772 30.9996 26 35.4767 26 40.9996C26 46.5224 30.4772 50.9996 36 50.9996C41.5229 50.9996 46 46.5224 46 40.9996C46 35.4767 41.5229 30.9996 36 30.9996Z" fill="white"/>
</svg>
