<svg width="72" height="72" viewBox="0 0 72 72" fill="none" xmlns="http://www.w3.org/2000/svg">
<path d="M32 33C32 32.4477 32.4477 32 33 32H39C39.5523 32 40 32.4477 40 33C40 33.5523 39.5523 34 39 34H33C32.4477 34 32 33.5523 32 33Z" fill="white"/>
<path d="M33 38C32.4477 38 32 38.4477 32 39C32 39.5523 32.4477 40 33 40H39C39.5523 40 40 39.5523 40 39C40 38.4477 39.5523 38 39 38H33Z" fill="white"/>
<path fill-rule="evenodd" clip-rule="evenodd" d="M36 48C42.6274 48 48 42.6274 48 36C48 29.3726 42.6274 24 36 24C29.3726 24 24 29.3726 24 36C24 42.6274 29.3726 48 36 48ZM36 46C41.5228 46 46 41.5228 46 36C46 30.4772 41.5228 26 36 26C30.4772 26 26 30.4772 26 36C26 41.5228 30.4772 46 36 46Z" fill="white"/>
</svg>
