<svg width="72" height="72" viewBox="0 0 72 72" fill="none" xmlns="http://www.w3.org/2000/svg">
<path fill-rule="evenodd" clip-rule="evenodd" d="M24 38C24 31.7091 28.8409 26.5488 35.0008 26.041C35.0003 26.0274 35 26.0137 35 26L35 23C35 22.4477 35.4477 22 36 22C36.5523 22 37 22.4477 37 23L37 26C37 26.0051 37 26.0102 36.9999 26.0152C36.9998 26.0238 36.9995 26.0324 36.9992 26.041C43.1591 26.5488 48 31.7091 48 38C48 44.6274 42.6274 50 36 50C29.3726 50 24 44.6274 24 38ZM36 28C30.4772 28 26 32.4772 26 38C26 43.1853 29.9467 47.4489 35 47.9506V39C35 38.4477 35.4477 38 36 38C36.5523 38 37 38.4477 37 39V47.9506C42.0533 47.4489 46 43.1853 46 38C46 32.4772 41.5228 28 36 28Z" fill="white"/>
</svg>
