<svg width="72" height="72" viewBox="0 0 72 72" fill="none" xmlns="http://www.w3.org/2000/svg">
<path fill-rule="evenodd" clip-rule="evenodd" d="M48 31C48 37.2909 43.1591 42.4512 36.9992 42.959C36.9997 42.9726 37 42.9863 37 43V48H39C39.5523 48 40 48.4477 40 49C40 49.5523 39.5523 50 39 50H37V52C37 52.5523 36.5523 53 36 53C35.4477 53 35 52.5523 35 52V43C35 42.9922 35.0001 42.9845 35.0003 42.9767C35.0004 42.9708 35.0006 42.9649 35.0008 42.959C28.8409 42.4512 24 37.2909 24 31C24 24.3726 29.3726 19 36 19C42.6274 19 48 24.3726 48 31ZM36 41C41.5228 41 46 36.5228 46 31C46 25.4772 41.5228 21 36 21C30.4772 21 26 25.4772 26 31C26 36.5228 30.4772 41 36 41Z" fill="white"/>
</svg>
