<svg width="72" height="72" viewBox="0 0 72 72" fill="none" xmlns="http://www.w3.org/2000/svg">
<path fill-rule="evenodd" clip-rule="evenodd" d="M24 41C24 34.7091 28.8409 29.5488 35.0008 29.041C35.0003 29.0274 35 29.0137 35 29L35 20C35 19.4477 35.4477 19 36 19C36.5523 19 37 19.4477 37 20L37 29C37 29.0051 37 29.0102 36.9999 29.0152C36.9998 29.0238 36.9995 29.0324 36.9992 29.041C43.1591 29.5488 48 34.7091 48 41C48 47.6274 42.6274 53 36 53C29.3726 53 24 47.6274 24 41ZM36 31C30.4772 31 26 35.4772 26 41C26 46.1853 29.9467 50.4489 35 50.9506V47C35 46.4477 35.4477 46 36 46C36.5523 46 37 46.4477 37 47V50.9506C42.0533 50.4489 46 46.1853 46 41C46 35.4772 41.5228 31 36 31Z" fill="white"/>
</svg>
