<svg width="72" height="72" viewBox="0 0 72 72" fill="none" xmlns="http://www.w3.org/2000/svg">
<path fill-rule="evenodd" clip-rule="evenodd" d="M48.9698 22.0605L44.2557 21.7832C43.3377 21.7292 42.8396 22.8383 43.4898 23.4885L45.2793 25.278L41.2933 29.2641C41.2839 29.2734 41.2748 29.2829 41.2659 29.2926C36.5511 25.2951 29.4785 25.5206 25.0299 29.9693C20.3436 34.6556 20.3436 42.2536 25.0299 46.9399C29.7161 51.6262 37.3141 51.6261 42.0004 46.9399C46.4485 42.4918 46.6746 35.4206 42.6788 30.7059C42.6885 30.6969 42.6981 30.6877 42.7075 30.6783L49.0715 24.3143C49.0834 24.3024 49.095 24.2902 49.1062 24.2779L49.6182 23.7658C50.2283 23.1557 49.8312 22.1111 48.9698 22.0605ZM26.4441 45.5256C30.3493 49.4309 36.681 49.4309 40.5862 45.5256C44.4914 41.6204 44.4914 35.2888 40.5862 31.3835C36.681 27.4783 30.3493 27.4783 26.4441 31.3835C22.5388 35.2888 22.5388 41.6204 26.4441 45.5256Z" fill="white"/>
</svg>
