<svg width="72" height="72" viewBox="0 0 72 72" fill="none" xmlns="http://www.w3.org/2000/svg">
<path fill-rule="evenodd" clip-rule="evenodd" d="M46.2552 19.7832L50.9694 20.0605C51.2841 20.079 51.5369 20.2302 51.7012 20.4445C51.7885 20.5557 51.8534 20.6883 51.8864 20.8386C51.903 20.9107 51.9118 20.9847 51.9122 21.0591L52.1861 25.7155C52.2401 26.6335 51.1309 27.1316 50.4808 26.4814L48.6924 24.693L45.15 28.2354C46.9276 30.3282 48 33.0387 48 35.9996C48 42.2906 43.1591 47.4509 36.9992 47.9586L36.9997 47.9734C36.9999 47.9821 37 47.9909 37 47.9996V52.9996H39C39.5523 52.9996 40 53.4474 40 53.9996C40 54.5519 39.5523 54.9996 39 54.9996H37V56.9996C37 57.5519 36.5523 57.9996 36 57.9996C35.4477 57.9996 35 57.5519 35 56.9996V54.9996H33C32.4477 54.9996 32 54.5519 32 53.9996C32 53.4474 32.4477 52.9996 33 52.9996H35V47.9996L35.0002 47.9824L35.0008 47.9586C28.8409 47.4509 24 42.2906 24 35.9996C24 33.0794 25.0431 30.4028 26.7771 28.3221L25.4697 27.0147L24.1213 28.363C23.7308 28.7535 23.0976 28.7535 22.7071 28.363C22.3166 27.9725 22.3166 27.3393 22.7071 26.9488L24.0554 25.6005L23.148 24.693L21.3596 26.4814C20.7094 27.1316 19.6002 26.6335 19.6542 25.7155L19.9282 21.0591C19.9286 20.9847 19.9374 20.9108 19.9539 20.8387C19.9869 20.6883 20.0518 20.5557 20.1392 20.4445C20.3035 20.2302 20.5562 20.079 20.871 20.0605L25.5852 19.7832C26.5031 19.7292 27.0012 20.8383 26.351 21.4885L24.5615 23.2781L25.4697 24.1862L26.9498 22.7061C27.3403 22.3156 27.9734 22.3156 28.364 22.7061C28.7545 23.0967 28.7545 23.7298 28.364 24.1204L26.8839 25.6005L28.1804 26.897C30.2806 25.0911 33.0129 23.9996 36 23.9996C38.9464 23.9996 41.6449 25.0616 43.7334 26.8235L47.2789 23.2781L45.4894 21.4885C44.8392 20.8383 45.3373 19.7292 46.2552 19.7832ZM46 35.9996C46 41.5225 41.5229 45.9996 36 45.9996C30.4772 45.9996 26 41.5225 26 35.9996C26 30.4768 30.4772 25.9996 36 25.9996C41.5229 25.9996 46 30.4768 46 35.9996Z" fill="white"/>
</svg>
