<svg width="72" height="72" viewBox="0 0 72 72" fill="none" xmlns="http://www.w3.org/2000/svg">
<path fill-rule="evenodd" clip-rule="evenodd" d="M48.969 22.0605L44.2549 21.7832C43.3369 21.7292 42.8388 22.8383 43.489 23.4885L45.2785 25.278L41.2925 29.2641C41.2831 29.2734 41.274 29.2829 41.2651 29.2926C36.5503 25.2951 29.4777 25.5206 25.0291 29.9693C20.3428 34.6556 20.3428 42.2536 25.0291 46.9399C29.7154 51.6262 37.3133 51.6261 41.9996 46.9399C46.4477 42.4918 46.6738 35.4206 42.678 30.7059C42.6877 30.6969 42.6973 30.6877 42.7067 30.6783L46.692 26.693L48.4804 28.4814C49.1306 29.1316 50.2398 28.6335 50.1858 27.7155L49.9119 23.0589C49.9114 22.9851 49.9028 22.9118 49.8865 22.8403C49.8535 22.6886 49.788 22.555 49.6997 22.443C49.5354 22.2295 49.2831 22.0789 48.969 22.0605ZM40.5854 45.5256C36.6802 49.4309 30.3485 49.4309 26.4433 45.5256C22.538 41.6204 22.538 35.2888 26.4433 31.3835C30.3485 27.4783 36.6802 27.4783 40.5854 31.3835C44.4907 35.2888 44.4907 41.6204 40.5854 45.5256Z" fill="white"/>
</svg>
