<svg width="72" height="72" viewBox="0 0 72 72" fill="none" xmlns="http://www.w3.org/2000/svg">
<path fill-rule="evenodd" clip-rule="evenodd" d="M35.0008 29.041C28.8409 29.5488 24 34.7091 24 41C24 47.6274 29.3726 53 36 53C42.6274 53 48 47.6274 48 41C48 34.7091 43.1591 29.5488 36.9992 29.041C36.9995 29.0324 36.9998 29.0238 36.9999 29.0152L37 29V24.7328L38.0981 25.3668C38.5764 25.643 39.1879 25.4791 39.4641 25.0008C39.7402 24.5225 39.5764 23.9109 39.0981 23.6348L38 23.0008L39.0981 22.3668C39.5764 22.0907 39.7403 21.4791 39.4641 21.0008C39.188 20.5225 38.5764 20.3586 38.0981 20.6348L37 21.2687V20C37 19.4477 36.5523 19 36 19C35.4477 19 35 19.4477 35 20V21.2687L33.9019 20.6348C33.4236 20.3586 32.812 20.5225 32.5359 21.0008C32.2597 21.4791 32.4236 22.0907 32.9019 22.3668L34 23.0008L32.9019 23.6348C32.4236 23.9109 32.2598 24.5225 32.5359 25.0008C32.812 25.4791 33.4236 25.643 33.9019 25.3668L35 24.7328V29C35 29.0137 35.0003 29.0274 35.0008 29.041ZM26 41C26 35.4772 30.4772 31 36 31C41.5228 31 46 35.4772 46 41C46 46.5228 41.5228 51 36 51C30.4772 51 26 46.5228 26 41Z" fill="white"/>
</svg>
