<svg width="72" height="72" viewBox="0 0 72 72" fill="none" xmlns="http://www.w3.org/2000/svg">
<path fill-rule="evenodd" clip-rule="evenodd" d="M42.9589 37C42.4508 43.1595 37.2907 48 31 48C24.3726 48 19 42.6274 19 36C19 29.3726 24.3726 24 31 24C37.2907 24 42.4508 28.8405 42.9589 35H52C52.5523 35 53 35.4477 53 36C53 36.5523 52.5523 37 52 37H42.9589ZM40.9506 37C40.4489 42.0533 36.1853 46 31 46C25.4772 46 21 41.5228 21 36C21 30.4772 25.4772 26 31 26C36.1853 26 40.4489 29.9467 40.9506 35H32C31.4477 35 31 35.4477 31 36C31 36.5523 31.4477 37 32 37H40.9506Z" fill="white"/>
</svg>
