<svg width="72" height="72" viewBox="0 0 72 72" fill="none" xmlns="http://www.w3.org/2000/svg">
<path d="M34.9744 38.0083V38.1653H36.7241V38.0083C36.7271 37.7067 36.7656 37.4528 36.8395 37.2466C36.9164 37.0404 37.0318 36.8588 37.1857 36.7019C37.3427 36.5449 37.5427 36.3941 37.7859 36.2495C38.0752 36.0771 38.326 35.8848 38.5383 35.6724C38.7507 35.457 38.9154 35.2108 39.0323 34.9338C39.1523 34.6537 39.2124 34.3336 39.2124 33.9735C39.2124 33.435 39.0785 32.9748 38.8107 32.5932C38.543 32.2116 38.1736 31.9208 37.7028 31.7207C37.2319 31.5176 36.6902 31.416 36.0778 31.416C35.5207 31.416 35.0114 31.516 34.5497 31.7161C34.0881 31.9131 33.7172 32.2131 33.4371 32.6163C33.1571 33.0164 33.0093 33.5242 32.994 34.1397H34.8775C34.8867 33.8874 34.9483 33.6766 35.0621 33.5073C35.176 33.3349 35.3222 33.2057 35.5007 33.1195C35.6792 33.0302 35.8685 32.9856 36.0685 32.9856C36.2747 32.9856 36.4625 33.0287 36.6317 33.1149C36.8041 33.2011 36.941 33.3242 37.0426 33.4842C37.1442 33.6442 37.195 33.8304 37.195 34.0428C37.195 34.2428 37.1503 34.4244 37.0611 34.5875C36.9718 34.7476 36.8518 34.8938 36.701 35.0261C36.5502 35.1584 36.3794 35.2862 36.1886 35.4093C35.9331 35.5693 35.7146 35.7478 35.533 35.9448C35.3514 36.1418 35.2129 36.4003 35.1175 36.7204C35.0252 37.0404 34.9775 37.4698 34.9744 38.0083Z" fill="white"/>
<path d="M35.0991 40.7967C35.3176 41.0121 35.5807 41.1199 35.8885 41.1199C36.0855 41.1199 36.267 41.0706 36.4332 40.9721C36.5994 40.8706 36.7333 40.7367 36.8349 40.5705C36.9395 40.4012 36.9934 40.215 36.9964 40.0119C36.9934 39.7103 36.881 39.4518 36.6594 39.2363C36.4378 39.0209 36.1809 38.9132 35.8885 38.9132C35.5807 38.9132 35.3176 39.0209 35.0991 39.2363C34.8836 39.4518 34.7775 39.7103 34.7805 40.0119C34.7775 40.3166 34.8836 40.5782 35.0991 40.7967Z" fill="white"/>
<path fill-rule="evenodd" clip-rule="evenodd" d="M24 36C24 29.3726 29.3726 24 36 24C42.6274 24 48 29.3726 48 36C48 42.6274 42.6274 48 36 48C29.3726 48 24 42.6274 24 36ZM26 36C26 30.4772 30.4772 26 36 26C41.5228 26 46 30.4772 46 36C46 41.5229 41.5228 46 36 46C30.4771 46 26 41.5228 26 36Z" fill="white"/>
</svg>
