<svg width="72" height="72" viewBox="0 0 72 72" fill="none" xmlns="http://www.w3.org/2000/svg">
<path fill-rule="evenodd" clip-rule="evenodd" d="M36 19C35.4477 19 35 19.4477 35 20V24C35 24.0137 35.0003 24.0274 35.0008 24.041C28.8409 24.5488 24 29.7091 24 36C24 42.2909 28.8409 47.4512 35.0008 47.959C35.0003 47.9726 35 47.9863 35 48V52C35 52.5523 35.4477 53 36 53C36.5523 53 37 52.5523 37 52V48C37 47.9863 36.9997 47.9726 36.9992 47.959C43.1591 47.4512 48 42.2909 48 36C48 29.7091 43.1591 24.5488 36.9992 24.041C36.9997 24.0274 37 24.0137 37 24V20C37 19.4477 36.5523 19 36 19ZM26.1324 34.3688C26.9112 29.6219 31.0326 26 36 26C41.3123 26 45.657 30.1422 45.9807 35.373L39.7118 38.2984L33.7024 32.289C33.1077 31.6943 32.2045 31.5352 31.4424 31.8908L26.1324 34.3688ZM26.0194 36.6286C26.3438 41.8586 30.6883 46 36 46C40.9668 46 45.0878 42.379 45.8673 37.6329L40.5576 40.1108C39.7955 40.4664 38.8923 40.3073 38.2976 39.7126L32.2882 33.7032L26.0194 36.6286Z" fill="white"/>
</svg>
